<?xml version="1.0" encoding="UTF-8" standalone="no"?>
<!DOCTYPE svg PUBLIC "-//W3C//DTD SVG 20010904//EN"
              "http://www.w3.org/TR/2001/REC-SVG-20010904/DTD/svg10.dtd">

<svg xmlns="http://www.w3.org/2000/svg"
     width="1.51333in" height="1.27333in"
     viewBox="0 0 454 382">
  <path id="BULL"
        fill="#2156E8" stroke="black" stroke-width="1"
        d="M 161.74,338.16
           C 161.74,338.16 176.10,376.63 175.50,375.95
             206.77,385.81 269.11,377.02 269.11,377.02
             269.11,377.02 267.64,336.79 267.64,336.79
             267.64,336.79 307.46,346.59 306.97,346.46
             319.93,339.55 341.49,287.59 341.49,287.59
             341.49,287.59 282.66,258.78 282.66,258.78
             282.66,258.78 287.39,229.26 287.39,229.26
             287.39,229.26 331.80,207.17 331.80,207.17
             331.80,207.17 319.12,149.74 319.14,149.66
             332.92,151.33 449.82,139.69 452.38,133.65
             446.17,76.47 367.34,4.50 367.34,4.50
             367.34,4.50 397.82,81.91 384.40,98.70
             370.98,115.48 301.41,100.80 301.41,100.80
             301.41,100.80 315.80,84.28 315.80,84.28
             315.80,84.28 326.89,28.24 326.89,28.24
             326.89,28.24 266.20,59.38 266.20,59.38
             266.20,59.38 255.69,92.46 255.69,92.46
             255.69,92.46 214.32,74.23 214.32,74.23
             214.32,74.23 183.78,89.23 183.78,89.23
             183.78,89.23 169.87,55.87 169.87,55.87
             169.87,55.87 116.72,24.86 116.72,24.86
             116.72,24.86 112.82,75.90 112.82,75.90
             112.82,75.90 142.69,101.08 142.69,101.08
             142.69,101.08 66.18,113.87 53.28,94.93
             40.38,75.98 75.51,0.81 75.19,0.73
             15.57,47.32 0.11,131.51 0.11,131.51
             18.74,137.86 97.61,149.12 97.61,149.12
             97.61,149.12 87.03,180.19 87.03,180.19
             87.03,180.19 127.63,219.17 127.63,219.17
             127.63,219.17 137.38,253.57 137.38,253.57
             137.38,253.57 92.51,278.39 92.44,278.63
             92.39,290.51 131.97,342.15 131.97,342.15
             131.97,342.15 161.74,338.16 161.74,338.16 Z" />
</svg>
